<svg id="bot_1_" xmlns="http://www.w3.org/2000/svg" viewBox="0 0 156.3 117.4"><style>.st0{fill:#2B2D2D;} .st1{fill:#2980BA;} .st2{fill:#464748;} .st3{fill:#BDC9C0;} .st4{fill:#9DA29E;}</style><g id="headphones"><g id="antenna"><path id="antenna_1_" class="st0" d="M2.9 6.2H6v62.7H2.9z"/><circle id="cap_3_" class="st1" cx="4.4" cy="6.2" r="4.3"/></g><g id="left"><path id="cap_2_" class="st2" d="M2.7 63.6l9.1-6.3v23.3l-9.1-6.3z"/><path id="cushion_1_" class="st0" d="M10.8 47h8.8v43.9h-8.8z"/></g><g id="right"><path id="cap_1_" class="st2" d="M134.6 63.6l-9.2-6.3v23.3l9.2-6.3z"/><path id="cushion" class="st0" d="M118.6 47h7.8v43.9h-7.8z"/></g></g><path id="head" class="st3" d="M18.7 29.9h100.9v87.5H18.7z"/><g id="eyes"><path id="right_1_" class="st0" d="M90.4 52.3c5.1 0 9.2 4.1 9.2 9.2h6.3c0-8.6-6.9-15.5-15.5-15.5s-15.5 6.9-15.5 15.5h6.3c0-5.1 4.1-9.2 9.2-9.2z"/><path id="left_1_" class="st0" d="M47.9 52.3c5.1 0 9.2 4.1 9.2 9.2h6.3c0-8.6-6.9-15.5-15.5-15.5s-15.5 6.9-15.5 15.5h6.3c0-5.1 4.1-9.2 9.2-9.2z"/></g><g id="mouth"><path id="hole" class="st0" d="M34.3 79.4H104v23.2H34.3z"/><path id="grill" class="st4" d="M32.4 77.4v27.2H106V77.4H32.4zm10.8 21.8h-5.4V82.7h5.4v16.5zm9.5 0h-5.4V82.7h5.4v16.5zm9.4 0h-5.4V82.7h5.4v16.5zm9.4 0h-5.4V82.7h5.4v16.5zm9.4 0h-5.4V82.7h5.4v16.5zm9.5 0H85V82.7h5.4v16.5zm9.4 0h-5.4V82.7h5.4v16.5z"/></g><path id="cap_4_" class="st1" d="M18.7 32h137.6v-6.1h-36.7V0H18.7z"/></svg>
